<svg width="128" height="128" viewBox="0 0 128 128" fill="none" xmlns="http://www.w3.org/2000/svg">
  <!-- Deep blue gradient background (matching your plugin theme) -->
  <rect width="128" height="128" rx="24" fill="url(#gradient)"/>
  
  <!-- Gradient definition -->
  <defs>
    <linearGradient id="gradient" x1="0" y1="0" x2="128" y2="128" gradientUnits="userSpaceOnUse">
      <stop offset="0%" style="stop-color:#0a1628;stop-opacity:1" />
      <stop offset="50%" style="stop-color:#1e3a5f;stop-opacity:1" />
      <stop offset="100%" style="stop-color:#2d5a88;stop-opacity:1" />
    </linearGradient>
    <linearGradient id="spark" x1="0" y1="0" x2="100" y2="100" gradientUnits="userSpaceOnUse">
      <stop offset="0%" style="stop-color:#a78bfa;stop-opacity:1" />
      <stop offset="100%" style="stop-color:#3b82f6;stop-opacity:1" />
    </linearGradient>
  </defs>
  
  <!-- UI Frame/Document icon -->
  <rect x="32" y="28" width="64" height="72" rx="6" fill="none" stroke="#3b82f6" stroke-width="3" opacity="0.6"/>
  
  <!-- Three horizontal lines representing UI elements -->
  <rect x="40" y="40" width="32" height="4" rx="2" fill="#3b82f6" opacity="0.5"/>
  <rect x="40" y="52" width="48" height="4" rx="2" fill="#3b82f6" opacity="0.5"/>
  <rect x="40" y="64" width="40" height="4" rx="2" fill="#3b82f6" opacity="0.5"/>
  
  <!-- Checkmark/verification icon -->
  <circle cx="76" cy="52" r="10" fill="#10b981" opacity="0.9"/>
  <path d="M72 52 L75 55 L80 49" stroke="white" stroke-width="2.5" fill="none" stroke-linecap="round" stroke-linejoin="round"/>
  
  <!-- AI Sparkle/Star icon (top right) -->
  <g transform="translate(88, 32)">
    <circle cx="0" cy="0" r="3" fill="url(#spark)"/>
    <path d="M 0 -8 L 0 8 M -8 0 L 8 0" stroke="url(#spark)" stroke-width="2" stroke-linecap="round" opacity="0.8"/>
    <path d="M -5.5 -5.5 L 5.5 5.5 M 5.5 -5.5 L -5.5 5.5" stroke="url(#spark)" stroke-width="1.5" stroke-linecap="round" opacity="0.6"/>
  </g>
  
  <!-- Code brackets icon (bottom) -->
  <g transform="translate(64, 84)" opacity="0.8">
    <path d="M -12 -8 L -16 -4 L -16 4 L -12 8" stroke="#a78bfa" stroke-width="2.5" fill="none" stroke-linecap="round" stroke-linejoin="round"/>
    <path d="M 12 -8 L 16 -4 L 16 4 L 12 8" stroke="#a78bfa" stroke-width="2.5" fill="none" stroke-linecap="round" stroke-linejoin="round"/>
    <circle cx="0" cy="0" r="2" fill="#a78bfa"/>
  </g>
  
  <!-- Subtle glow effect -->
  <circle cx="64" cy="64" r="40" fill="url(#spark)" opacity="0.05"/>
</svg>
